<svg width="15" height="14" xmlns="http://www.w3.org/2000/svg">
 <!-- Created with Method Draw - http://github.com/duopixel/Method-Draw/ -->
 <g>
  <title>background</title>
 </g>
 <g>
  <title>Layer 1</title>
  <g id="svg_5">
   <path id="svg_4" d="m13.585502,11.250973l-0.61106,0l0,1.22209c0,0.67499 -0.5471,1.22215 -1.22215,1.22215l-10.3881,0c-0.67503,0 -1.22221,-0.54715 -1.22221,-1.22215l0,-8.55492c0,-0.67498 0.54715,-1.22214 1.22221,-1.22214l0.611,0l0,-1.22222c0,-0.67498 0.54715,-1.22209 1.22214,-1.22209l10.38815,0c0.67498,0 1.22215,0.5471 1.22215,1.22209l0,8.55496c0,0.67502 -0.54715,1.22223 -1.22215,1.22223l0.00002,0zm-12.22129,-7.94396c-0.33763,0 -0.61113,0.27364 -0.61113,0.61113l0,8.55491c0,0.33747 0.2735,0.61113 0.61113,0.61113l10.3881,0c0.33747,0 0.61099,-0.27364 0.61099,-0.61113l0,-8.55491c0,-0.33747 -0.2735,-0.61113 -0.61099,-0.61113l-10.3881,0zm12.83244,-1.83321c0,-0.33747 -0.27356,-0.611 -0.61113,-0.611l-10.38819,0c-0.33742,0 -0.61099,0.27351 -0.61099,0.611l0,1.22221l9.16595,0c0.67503,0 1.22215,0.54715 1.22215,1.22215l0,6.72168l0.61106,0c0.33756,0 0.61113,-0.27356 0.61113,-0.61106l0,-8.55498l0.00002,0z"/>
   <text stroke="null" xml:space="preserve" text-anchor="start" font-family="Helvetica, Arial, sans-serif" font-size="7" id="svg_5" y="11.126417" x="3.045569" fill-opacity="null" stroke-opacity="null" stroke-width="0" fill="#000000">粤</text>
  </g>
 </g>
</svg>